# xmcd
#
# Track frame offsets: 
#        150
#        28434
#        48669
#        56229
#        74389
#        100904
#        116973
#        151196
#        181208
#        186674
#        196805
#        205738
#        212097
#        230817
#        242792
#        253713
#        269659
#        271335
#        306240
#        316256
#        344139
#
# Disc length: 4775 seconds
#
# Revision: 0
# Processed by: cddbd v1.5.2PL0 Copyright (c) Steve Scherf et al.
# Submitted via: ExactAudioCopy v0.99pb5
#
DISCID=5812a515
DTITLE=Kiss  - Dynasty Sessions - Disc 5
DYEAR=1900
DGENRE=
TTITLE0=I Was Made For Lovin' You - Take 1
TTITLE1=I Was Made For Lovin' You - Take 2
TTITLE2=I Was Made For Lovin' You - Take 3
TTITLE3=I Was Made For Lovin' You - Take 4
TTITLE4=I Was Made For Lovin' You - Take 5
TTITLE5=I Was Made For Lovin' You - Take 6
TTITLE6=I Was Made For Lovin' You - Take 7
TTITLE7=I Was Made For Lovin' You - Take 8
TTITLE8=I Was Made For Lovin' You - Take 9
TTITLE9=I Was Made For Lovin' You - Take 10
TTITLE10=I Was Made For Lovin' You - Take 11
TTITLE11=I Was Made For Lovin' You - Take 12
TTITLE12=I Was Made For Lovin' You - Take 13
TTITLE13=I Was Made For Lovin' You - Take 14
TTITLE14=I Was Made For Lovin' You - Take 15
TTITLE15=I Was Made For Lovin' You - Take 16
TTITLE16=I Was Made For Lovin' You - Take 17
TTITLE17=I Was Made For Lovin' You - Take 18
TTITLE18=I Was Made For Lovin' You - Take 19
TTITLE19=I Was Made For Lovin' You - Take 20
TTITLE20=I Was Made For Lovin' You - Take 21
EXTD=
EXTT0=
EXTT1=
EXTT2=
EXTT3=
EXTT4=
EXTT5=
EXTT6=
EXTT7=
EXTT8=
EXTT9=
EXTT10=
EXTT11=
EXTT12=
EXTT13=
EXTT14=
EXTT15=
EXTT16=
EXTT17=
EXTT18=
EXTT19=
EXTT20=
PLAYORDER=
